<?xml version="1.0" standalone="no"?>
<!DOCTYPE svg PUBLIC "-//W3C//DTD SVG 20010904//EN"
 "http://www.w3.org/TR/2001/REC-SVG-20010904/DTD/svg10.dtd">
<svg version="1.0" xmlns="http://www.w3.org/2000/svg"
 width="769.000000pt" height="768.000000pt" viewBox="0 0 769.000000 768.000000"
 preserveAspectRatio="xMidYMid meet">

<g transform="translate(0.000000,768.000000) scale(0.100000,-0.100000)"
fill="#000000" stroke="none">
<path d="M3405 7644 c-281 -30 -410 -56 -680 -136 -92 -27 -259 -84 -299 -102
-17 -8 -80 -35 -141 -60 -188 -76 -516 -270 -726 -427 -68 -52 -129 -98 -135
-104 -6 -5 -37 -30 -67 -55 -31 -25 -141 -130 -245 -235 -148 -149 -217 -228
-321 -368 -444 -594 -694 -1238 -766 -1972 -26 -266 -15 -677 25 -905 5 -30
14 -89 20 -130 11 -75 103 -453 120 -493 5 -12 36 -94 69 -182 125 -340 327
-697 575 -1020 69 -89 84 -107 181 -214 57 -62 218 -218 285 -277 25 -21 47
-41 50 -44 12 -12 128 -108 165 -137 50 -38 335 -233 341 -233 3 0 30 -16 61
-36 74 -47 397 -204 503 -244 365 -137 475 -165 900 -232 130 -20 180 -22 495
-22 279 0 369 3 445 16 52 9 117 20 143 23 27 4 56 8 65 10 10 1 58 10 107 19
168 31 428 105 550 157 11 4 45 18 75 30 169 66 391 173 492 236 21 13 40 23
43 23 6 0 227 146 300 198 196 141 465 390 645 597 138 158 147 170 287 380
141 212 172 265 259 445 36 74 69 143 74 152 13 24 103 268 128 348 43 138 52
169 81 285 34 140 56 255 70 380 5 50 16 137 22 195 16 133 16 536 0 660 -6
52 -16 136 -22 185 -22 185 -54 339 -119 560 -198 679 -574 1280 -1099 1757
-474 432 -1002 719 -1611 877 -216 56 -282 68 -555 96 -301 31 -491 31 -790
-1z m840 -24 c95 -11 270 -40 395 -65 62 -12 326 -91 339 -101 2 -2 -39 -95
-92 -206 -52 -112 -112 -241 -132 -288 -53 -125 -88 -204 -95 -212 -3 -4 -30
0 -60 8 -288 76 -465 98 -790 99 -305 0 -443 -15 -703 -76 -136 -32 -139 -33
-150 -14 -14 23 -92 199 -146 330 -21 50 -67 151 -103 226 l-65 135 131 42
c72 23 154 46 181 51 72 13 152 29 210 40 90 18 208 33 325 41 149 11 639 4
755 -10z m-1624 -212 c17 -44 80 -188 127 -288 13 -30 33 -75 43 -100 84 -214
109 -281 109 -288 0 -5 -60 -31 -132 -58 -209 -77 -493 -227 -673 -358 -58
-42 -166 -127 -185 -146 -3 -3 -27 -23 -55 -45 -78 -62 -272 -260 -360 -368
-151 -186 -345 -506 -423 -697 -79 -193 -134 -350 -161 -462 -151 -613 -120
-1223 91 -1793 100 -269 189 -438 374 -712 175 -257 451 -534 724 -725 96 -68
311 -192 435 -253 206 -100 567 -214 780 -245 44 -7 105 -16 135 -21 92 -17
464 -23 600 -10 276 25 436 58 710 147 209 68 406 160 613 288 131 81 184 119
352 257 120 98 156 133 301 289 114 123 247 306 373 510 150 243 306 676 355
980 51 317 61 500 42 730 -19 224 -20 229 -52 393 -37 192 -65 286 -137 475
-86 223 -140 336 -217 457 -35 55 -90 142 -122 193 -32 52 -78 117 -101 145
-23 28 -46 57 -52 64 -5 6 -62 67 -125 135 -137 146 -244 244 -400 365 -89 69
-237 166 -300 196 -8 5 -24 13 -35 20 -118 71 -301 155 -472 217 -35 13 -63
26 -63 31 0 9 36 98 50 122 6 9 20 43 31 75 21 56 158 368 198 449 12 23 21
47 21 53 0 14 -1 14 108 -26 179 -65 416 -175 514 -237 31 -21 60 -37 63 -37
6 0 23 -10 155 -95 83 -53 245 -171 301 -219 19 -17 49 -42 65 -55 92 -76 250
-226 338 -322 184 -198 237 -266 411 -525 220 -327 450 -869 524 -1235 107
-525 120 -991 41 -1459 -56 -332 -84 -434 -204 -754 -72 -188 -251 -549 -342
-686 -92 -137 -241 -337 -317 -425 -84 -95 -319 -329 -392 -390 -33 -28 -62
-53 -65 -56 -43 -51 -340 -267 -480 -349 -48 -28 -363 -188 -445 -225 -159
-73 -449 -168 -630 -206 -236 -51 -294 -61 -340 -65 -27 -2 -90 -8 -140 -14
-166 -21 -520 -24 -693 -6 -86 9 -177 18 -202 21 -40 4 -181 31 -295 56 -22 5
-56 12 -75 15 -70 11 -379 109 -505 160 -33 14 -166 77 -295 142 -385 192
-619 361 -988 716 -130 125 -387 441 -482 593 -19 30 -43 67 -52 82 -9 14 -46
80 -82 146 -207 383 -321 689 -406 1095 -37 174 -39 185 -49 292 -6 57 -14
135 -18 173 -5 39 -8 174 -8 300 0 199 6 310 31 539 14 133 106 513 164 681
113 325 327 751 484 960 214 286 264 346 435 514 178 176 274 259 416 365 50
37 99 75 110 84 22 18 100 68 215 137 187 113 635 320 701 324 10 1 22 -12 30
-31z m1425 -578 c153 -10 260 -29 498 -86 55 -13 101 -26 104 -28 2 -2 -1 -13
-6 -23 -6 -10 -33 -76 -62 -148 -28 -71 -70 -170 -92 -218 -22 -49 -50 -117
-63 -150 -13 -34 -36 -89 -50 -122 -78 -174 -145 -418 -145 -525 1 -25 7 -76
15 -115 40 -187 54 -326 58 -543 4 -224 9 -252 43 -252 21 0 43 42 51 96 4 30
30 96 69 173 62 121 81 168 104 259 l11 44 32 -30 c225 -206 293 -299 378
-513 120 -303 147 -606 83 -939 -32 -167 -109 -352 -188 -451 -12 -14 -30 -38
-41 -53 -29 -40 -165 -150 -221 -180 -68 -35 -184 -76 -216 -76 -16 0 -28 -3
-28 -8 0 -10 44 -159 128 -437 38 -126 72 -239 75 -250 3 -11 10 -35 15 -52
l11 -33 -99 0 c-93 0 -98 1 -103 23 -2 12 -40 183 -83 380 l-79 357 -429 -2
-429 -3 -12 -50 c-7 -27 -43 -197 -81 -377 l-69 -328 -102 0 -102 0 9 28 c4
15 22 72 38 127 16 55 55 183 87 285 65 212 95 315 95 330 0 5 -14 10 -30 10
-33 0 -172 51 -229 83 -68 39 -221 174 -221 195 0 4 -10 18 -23 32 -40 43
-129 231 -159 335 -44 153 -58 261 -58 450 0 158 10 258 40 399 25 122 123
342 208 469 48 72 258 281 273 271 5 -3 9 -16 9 -30 0 -39 46 -160 95 -251 25
-45 56 -122 70 -170 14 -49 33 -94 42 -100 49 -37 57 -2 64 292 3 143 11 280
17 305 40 170 45 210 39 317 -11 197 -55 343 -208 689 -27 62 -49 115 -49 118
0 4 -20 49 -44 100 -25 51 -49 112 -55 134 -6 22 -23 61 -37 86 -14 25 -23 46
-20 46 4 0 39 8 79 19 73 19 217 51 317 71 130 26 440 35 676 20z m-1086 -237
c131 -332 197 -587 155 -600 -5 -1 -30 59 -54 135 -56 175 -113 296 -196 418
-36 54 -64 102 -62 108 3 8 84 42 108 45 3 1 25 -47 49 -106z m1870 59 c0 -3
-21 -37 -48 -76 -90 -133 -193 -356 -232 -498 -14 -49 -27 -88 -31 -88 -3 0
-11 12 -18 26 -19 43 21 187 141 509 23 61 47 124 55 142 l13 32 60 -21 c33
-11 60 -22 60 -26z m-2060 -51 c0 -109 35 -196 220 -545 51 -96 61 -122 52
-135 -7 -9 -33 -54 -59 -101 -46 -81 -96 -139 -154 -181 l-27 -19 -37 88 c-20
48 -41 91 -45 96 -16 17 -236 -179 -327 -293 -37 -46 -85 -103 -106 -126 l-37
-42 67 -58 c38 -32 74 -64 81 -71 12 -10 4 -26 -40 -90 -29 -44 -68 -112 -87
-152 -19 -39 -39 -72 -43 -72 -5 0 -45 21 -89 46 -44 26 -81 45 -82 43 -52
-82 -148 -417 -164 -570 l-6 -56 91 -5 c51 -2 93 -6 95 -9 2 -2 1 -84 -1 -181
l-4 -178 -99 0 c-55 0 -101 -4 -104 -10 -6 -10 8 -153 26 -265 10 -60 66 -255
74 -255 2 0 41 14 86 30 45 17 87 29 93 27 6 -3 19 -34 28 -69 10 -36 37 -112
61 -171 l44 -106 -88 -56 -88 -56 66 -137 c210 -441 353 -744 353 -748 0 -2
-76 -4 -170 -4 l-170 0 0 -120 0 -120 -57 0 c-32 0 -63 4 -69 8 -17 11 -34 48
-34 72 0 33 54 129 105 187 65 74 59 120 -17 146 -68 24 -136 35 -242 42 l-99
7 6 207 c4 113 12 337 19 497 9 222 9 324 0 435 -11 142 -27 253 -39 272 -3 5
-5 74 -4 151 2 132 -2 182 -30 341 -17 95 -50 238 -60 257 -5 9 -25 79 -44
155 -20 76 -45 172 -56 214 -11 42 -26 108 -33 145 l-13 69 -10 -40 c-6 -22
-30 -119 -54 -215 -23 -96 -60 -224 -82 -285 -21 -60 -41 -119 -44 -130 -3
-11 -22 -74 -43 -140 -74 -227 -107 -432 -97 -594 7 -107 9 -124 37 -233 19
-75 79 -209 117 -265 11 -15 23 -35 26 -43 4 -8 29 -49 57 -90 52 -78 215
-392 251 -483 32 -79 70 -217 64 -228 -4 -5 -21 -9 -39 -9 -51 0 -204 -29
-229 -43 -30 -17 -46 -38 -47 -62 0 -17 57 -100 79 -115 4 -3 24 -27 44 -53
115 -151 424 -456 588 -578 380 -285 747 -449 1184 -529 33 -6 80 -16 105 -22
25 -6 167 -13 315 -15 269 -5 383 1 550 31 44 8 94 16 110 19 100 16 301 79
470 148 318 129 636 340 924 614 130 123 412 451 423 491 13 51 -66 94 -198
109 -33 3 -73 8 -91 11 l-31 5 13 47 c50 187 192 480 349 722 164 251 206 385
206 650 0 167 -32 328 -103 535 -84 242 -159 473 -176 546 -20 85 -51 232 -51
245 0 28 -14 -19 -30 -105 -11 -56 -42 -182 -69 -279 -124 -447 -143 -549
-147 -780 -2 -117 -9 -203 -18 -240 -31 -122 -42 -456 -20 -652 2 -19 6 -182
10 -361 l7 -326 -93 -6 c-188 -14 -265 -35 -296 -82 -14 -22 -14 -27 0 -57 9
-18 28 -46 44 -63 47 -52 83 -111 89 -148 12 -77 -17 -107 -102 -107 l-44 0
-3 117 -3 118 -167 3 c-94 1 -168 7 -168 12 0 5 25 58 55 119 30 61 55 113 55
115 0 3 31 69 69 148 38 79 105 219 150 312 44 92 81 174 81 181 0 7 -6 15
-12 18 -7 3 -45 28 -85 56 l-72 51 34 77 c36 85 61 154 76 221 6 24 16 42 25
42 7 0 50 -13 96 -30 45 -16 85 -30 89 -30 19 0 68 261 85 453 l6 77 -100 0
-101 0 -3 178 c-2 97 -2 179 0 181 1 3 43 7 92 9 85 4 90 6 90 26 0 30 -47
267 -67 336 -14 48 -91 260 -98 268 -2 2 -41 -17 -87 -42 -47 -25 -87 -46 -90
-46 -2 0 -15 24 -28 53 -14 28 -53 96 -89 150 l-65 98 45 40 c24 22 59 52 77
66 30 24 41 47 25 55 -5 2 -37 39 -72 83 -91 114 -151 174 -274 277 -85 71
-111 88 -118 77 -5 -8 -23 -48 -40 -89 -17 -41 -34 -79 -39 -83 -9 -11 -113
85 -149 137 -15 23 -39 62 -53 87 -14 25 -32 55 -39 67 -14 23 -15 20 108 247
24 44 52 98 62 120 10 22 31 66 45 98 29 62 56 170 56 225 0 17 1 32 3 32 13
0 151 -62 274 -124 267 -132 457 -265 708 -495 103 -94 302 -330 398 -471 121
-178 186 -294 267 -475 87 -195 131 -318 173 -490 67 -267 87 -442 87 -740 0
-340 -32 -558 -132 -905 -97 -338 -364 -814 -598 -1065 -36 -39 -85 -94 -110
-122 -90 -103 -390 -353 -501 -418 -10 -5 -66 -39 -124 -74 -270 -160 -600
-288 -880 -341 -60 -12 -128 -25 -150 -30 -89 -20 -173 -24 -460 -24 -292 0
-374 6 -550 38 -387 71 -759 224 -1110 455 -38 25 -72 48 -75 51 -3 3 -21 17
-40 30 -19 13 -39 29 -45 35 -5 6 -48 42 -95 80 -47 38 -102 85 -124 104 -33
31 -222 240 -295 326 -20 24 -125 177 -158 230 -80 131 -109 183 -179 321 -95
187 -186 443 -224 629 -5 28 -19 88 -30 135 -60 252 -66 753 -14 1025 33 168
97 415 141 535 48 133 254 555 282 580 3 3 33 46 66 95 52 79 140 198 170 231
5 6 49 56 97 110 168 190 430 404 678 551 118 70 414 211 448 212 7 1 12 -13
12 -38z m-1215 -1751 c47 -172 70 -251 90 -320 70 -244 100 -544 71 -731 -3
-13 -7 -46 -11 -73 -4 -26 -15 -75 -26 -108 -21 -66 -23 -88 -11 -88 11 0 49
133 65 225 2 11 10 -6 18 -40 17 -72 19 -578 4 -985 l-10 -255 -32 85 c-78
210 -130 319 -224 470 -99 160 -213 368 -228 417 -10 32 -25 78 -32 103 -10
33 -14 105 -13 260 l1 215 51 175 c27 96 71 234 95 305 48 137 109 351 128
448 8 36 15 54 19 45 4 -7 24 -74 45 -148z m4620 -22 c19 -69 71 -233 115
-365 163 -485 184 -667 109 -958 -25 -96 -71 -186 -220 -428 -117 -188 -221
-393 -259 -510 -13 -37 -26 -70 -31 -72 -4 -3 -8 92 -8 211 -1 120 -3 220 -6
223 -2 4 -7 136 -10 293 -5 207 -4 316 5 390 17 139 24 155 39 92 33 -141 45
-174 59 -174 8 0 12 6 9 13 -3 8 -18 63 -34 123 -26 103 -28 121 -28 314 0
244 12 314 110 660 34 124 66 241 69 259 4 19 11 53 18 75 l11 41 8 -30 c5
-16 24 -87 44 -157z m-2270 -2034 c51 -21 129 -93 205 -187 38 -48 70 -91 70
-94 0 -6 -10 2 -76 60 -105 93 -213 147 -291 147 -70 0 -192 -67 -297 -164
-47 -43 -67 -48 -34 -8 12 16 34 44 48 62 135 182 247 238 375 184z m12 -209
c31 -16 80 -56 125 -103 68 -73 146 -172 134 -172 -3 0 -33 24 -66 54 -104 93
-188 145 -252 156 -98 16 -172 -21 -340 -167 -27 -24 -51 -43 -53 -43 -10 0
94 128 150 186 109 111 202 138 302 89z m3 -201 c36 -17 79 -51 128 -102 92
-96 147 -161 139 -168 -3 -3 -27 14 -54 38 -53 46 -100 80 -176 129 -61 40
-142 49 -216 24 -47 -15 -142 -80 -243 -165 -59 -50 -45 -19 35 77 87 105 125
138 192 169 66 31 125 31 195 -2z m-2160 -46 l9 -23 0 23 c1 21 5 22 69 22
123 -1 302 -41 302 -68 0 -69 -365 -94 -607 -42 -66 15 -81 25 -67 47 19 31
126 58 242 62 36 1 44 -3 52 -21z m1203 -65 c22 -49 43 -91 45 -95 2 -5 -102
-8 -232 -8 l-235 0 30 70 c16 39 34 82 39 95 l10 25 150 0 151 0 42 -87z
m2088 -3 c21 -47 38 -88 38 -92 1 -5 -105 -8 -234 -8 l-235 0 47 95 48 95 149
-2 150 -3 37 -85z m810 58 l1 -33 11 34 11 33 80 -6 c45 -4 104 -13 132 -21
49 -14 94 -48 81 -62 -16 -15 -182 -43 -297 -49 -260 -13 -458 41 -346 95 39
18 166 39 254 40 l72 1 1 -32z m-2937 -366 c53 -46 182 -121 296 -172 59 -27
255 -77 353 -90 102 -13 379 -13 487 1 256 32 543 154 687 292 l42 40 10 -24
c6 -13 27 -67 47 -119 20 -52 53 -139 75 -194 21 -54 36 -102 34 -106 -3 -4
-37 -27 -76 -50 -57 -34 -73 -39 -80 -29 -5 8 -9 18 -9 23 0 10 -61 209 -65
214 -2 2 -183 -84 -192 -92 -1 -1 9 -46 22 -101 14 -55 26 -115 27 -133 3 -33
1 -34 -59 -57 -34 -13 -65 -21 -67 -16 -4 5 -46 241 -46 256 0 4 -49 -7 -129
-30 l-63 -18 7 -90 c4 -50 10 -114 15 -141 4 -28 7 -52 6 -53 -5 -5 -141 -31
-145 -28 -2 3 -7 46 -12 97 -5 51 -11 111 -15 133 l-5 40 -82 -5 -82 -5 3
-137 3 -138 -90 0 -91 0 0 140 0 140 -80 0 -79 0 -6 -32 c-3 -18 -10 -77 -14
-131 -4 -53 -10 -99 -12 -101 -4 -4 -141 22 -145 27 -1 1 6 64 14 140 8 75 13
139 11 141 -2 3 -44 15 -92 28 -71 19 -89 20 -96 10 -4 -7 -16 -67 -26 -133
-9 -65 -19 -119 -21 -119 -1 0 -35 12 -73 26 -62 23 -70 29 -66 48 24 103 54
241 52 243 -7 6 -179 93 -186 93 -4 0 -23 -55 -41 -122 -18 -68 -34 -125 -36
-127 -2 -2 -39 18 -83 44 l-79 48 16 42 c9 23 49 121 87 218 60 150 72 173 85
163 8 -7 37 -31 64 -54z"/>
<path d="M3740 7458 c0 -11 8 -18 18 -18 39 0 45 -38 36 -206 -8 -142 -11
-158 -29 -168 -26 -14 -36 -29 -26 -39 4 -4 79 -6 166 -5 l159 3 22 55 c19 47
20 56 7 58 -8 2 -33 -15 -55 -38 -39 -41 -40 -41 -106 -38 l-67 3 1 40 c0 22
1 62 2 88 l2 48 38 -3 c31 -2 39 -8 51 -35 25 -56 39 -41 46 52 4 47 5 88 2
92 -11 11 -37 -6 -37 -25 0 -29 -21 -42 -67 -42 l-43 0 0 56 c0 79 11 94 66
94 53 0 100 -21 131 -58 36 -42 48 -17 22 46 l-21 51 -159 3 c-146 3 -159 2
-159 -14z"/>
<path d="M3420 7424 c-6 -14 -10 -29 -10 -34 0 -9 -66 -244 -76 -270 -3 -9
-37 45 -85 138 l-80 152 -70 0 c-62 0 -70 -2 -67 -17 2 -10 13 -19 26 -21 12
-2 26 -11 31 -20 4 -9 16 -85 26 -168 18 -163 14 -194 -26 -194 -12 0 -19 -5
-16 -12 2 -7 13 -13 25 -12 12 0 47 1 78 2 47 2 55 5 52 20 -2 9 -9 18 -16 18
-6 1 -16 2 -21 3 -12 1 -28 82 -35 180 -4 41 -9 85 -12 98 -11 44 12 23 38
-34 88 -198 123 -263 140 -263 20 0 29 27 78 233 18 76 34 136 36 134 7 -6 34
-228 34 -272 0 -34 -5 -44 -25 -55 -39 -21 -30 -32 23 -26 26 2 66 5 90 5 30
1 42 5 42 16 0 8 -9 15 -20 15 -30 0 -40 31 -50 148 -5 59 -12 133 -16 164 -6
55 -6 58 20 69 43 20 30 29 -39 29 -61 0 -66 -2 -75 -26z"/>
<path d="M4420 7358 c-43 -76 -57 -100 -95 -163 -17 -27 -37 -62 -44 -77 -22
-44 -50 -68 -76 -68 -15 0 -25 -6 -25 -14 0 -9 22 -18 63 -25 34 -7 70 -14 80
-17 11 -4 17 0 17 10 0 9 -8 16 -19 16 -30 0 -33 29 -8 74 23 41 23 41 77 39
100 -4 100 -4 100 -78 l0 -65 -30 0 c-19 0 -30 -5 -30 -14 0 -9 23 -17 73 -24
41 -6 81 -14 90 -18 13 -5 17 -1 17 16 0 15 -4 20 -15 16 -20 -7 -30 35 -55
239 -26 222 -25 215 -58 215 -23 0 -33 -10 -62 -62z m53 -189 c-1 -3 -25 -2
-53 4 -59 11 -59 11 -2 99 l37 58 11 -78 c5 -42 9 -80 7 -83z"/>
<path d="M2388 7167 c-56 -30 -67 -51 -25 -45 21 3 22 -1 19 -52 -2 -30 -7
-59 -12 -63 -8 -9 -108 51 -109 65 -1 4 8 10 19 13 11 3 20 10 20 15 0 23 -25
18 -100 -20 -81 -41 -97 -66 -35 -54 29 5 44 -1 117 -52 45 -32 84 -58 85 -59
2 -1 -4 -42 -12 -92 -15 -91 -25 -123 -47 -155 -23 -32 1 -30 71 3 73 35 84
52 38 57 -30 4 -33 22 -19 110 l7 43 62 -43 c34 -24 63 -48 63 -53 0 -6 -10
-16 -22 -24 -18 -11 -19 -14 -6 -22 22 -12 169 60 165 81 -2 10 -12 14 -31 12
-20 -2 -43 8 -79 35 -29 22 -73 52 -99 68 -40 25 -47 34 -43 55 2 14 7 52 10
84 6 48 13 65 36 87 52 48 11 52 -73 6z"/>
<path d="M5160 7190 c0 -6 9 -18 20 -27 11 -10 20 -23 20 -29 0 -10 -26 -75
-60 -149 -5 -11 -25 -55 -44 -99 -33 -71 -38 -78 -60 -74 -42 8 -41 -21 2 -39
20 -8 82 -35 137 -59 55 -24 105 -44 112 -44 16 0 84 90 77 101 -3 5 -24 -2
-48 -16 -24 -14 -57 -25 -75 -25 -41 0 -101 28 -101 46 0 29 125 325 142 335
5 3 20 4 34 1 50 -9 22 20 -51 53 -77 36 -105 42 -105 25z"/>
<path d="M1918 6934 c-54 -41 -64 -69 -22 -61 33 6 48 -9 137 -141 55 -82 67
-106 67 -140 0 -33 -6 -45 -31 -66 -34 -29 -101 -35 -131 -13 -20 16 -168 236
-168 250 0 6 8 19 17 29 11 13 13 22 6 29 -12 12 -155 -90 -149 -106 1 -5 17
-9 33 -7 28 3 35 -4 99 -99 86 -128 132 -169 188 -169 56 1 118 31 150 72 42
56 34 151 -19 216 -32 39 -103 139 -114 160 -9 16 -9 27 -1 42 11 20 6 40 -8
40 -4 0 -28 -17 -54 -36z"/>
<path d="M5627 6964 c-3 -4 1 -17 10 -31 15 -22 15 -27 0 -56 -8 -18 -51 -81
-94 -142 -72 -100 -82 -110 -110 -110 -17 0 -34 -3 -38 -7 -4 -3 42 -39 102
-79 59 -40 120 -81 134 -92 l26 -19 52 34 c28 18 51 36 51 40 0 4 -33 5 -72 2
-64 -4 -78 -2 -113 18 -22 13 -41 32 -43 42 -4 20 77 145 94 146 16 0 54 -44
54 -64 0 -9 -4 -26 -10 -36 -7 -13 -6 -19 5 -24 10 -3 26 12 48 47 65 100 71
125 25 93 -29 -21 -57 -20 -86 2 l-22 17 36 58 c21 31 44 57 52 57 22 0 80
-47 96 -78 8 -15 17 -44 21 -65 8 -44 22 -48 31 -9 3 15 10 42 14 59 8 32 6
34 -46 70 -30 21 -85 59 -122 86 -65 46 -82 53 -95 41z"/>
<path d="M6025 6670 c-4 -6 0 -19 9 -29 20 -23 20 -76 -2 -170 l-17 -74 -70
-17 c-39 -9 -80 -22 -92 -28 -19 -10 -28 -10 -52 3 -22 11 -32 12 -37 3 -4 -6
17 -32 52 -64 l59 -52 3 32 c3 29 8 34 55 51 29 10 58 20 66 23 13 5 12 -10
-4 -96 -2 -9 -4 -21 -4 -27 -1 -5 -5 -16 -10 -24 -8 -12 -12 -12 -25 -2 -10 8
-21 9 -31 4 -14 -8 -11 -13 17 -35 18 -14 51 -41 73 -61 43 -39 63 -36 44 7
-10 22 -9 47 11 144 l23 118 64 19 c72 20 105 23 146 11 34 -10 36 5 5 34 -54
52 -95 78 -107 71 -9 -6 -8 -11 4 -21 8 -7 15 -16 15 -21 0 -10 -109 -43 -117
-36 -2 3 0 31 7 61 11 55 25 67 48 44 9 -9 12 -8 12 4 0 9 -19 35 -42 57 -70
65 -96 82 -103 71z"/>
<path d="M1390 6513 c-14 -10 -37 -28 -51 -40 -14 -13 -34 -29 -44 -37 -27
-19 -10 -38 29 -30 30 5 36 1 77 -48 24 -29 72 -84 106 -123 60 -66 77 -105
53 -120 -5 -3 -10 -10 -10 -16 0 -24 36 -2 142 87 l115 96 -20 59 c-12 36 -26
59 -35 59 -11 0 -13 -8 -8 -40 10 -63 -46 -150 -96 -150 -23 0 -29 7 -133 130
-38 46 -78 92 -87 102 -20 20 -23 44 -8 53 12 7 14 35 2 35 -4 0 -19 -8 -32
-17z"/>
<path d="M6695 5805 c-22 -8 -41 -15 -43 -15 -2 0 -12 -19 -22 -43 -17 -38
-18 -51 -8 -112 14 -87 15 -132 1 -146 -6 -6 -29 -13 -50 -16 -34 -4 -43 -2
-57 18 -19 27 -21 106 -4 144 19 41 -1 43 -38 3 -34 -38 -42 -62 -24 -73 6 -3
10 -13 10 -22 0 -34 43 -104 72 -119 39 -20 91 -11 136 23 47 36 52 56 32 148
-27 121 -3 175 72 161 67 -12 90 -93 54 -181 -14 -32 -14 -37 0 -42 10 -4 32
10 62 40 l46 46 -26 20 c-16 13 -28 34 -31 58 -7 43 -54 95 -100 112 -35 13
-33 13 -82 -4z"/>
<path d="M786 5782 c4 -13 -5 -32 -25 -55 -48 -53 -64 -100 -51 -146 5 -21 19
-50 31 -65 18 -23 28 -26 78 -26 48 0 65 5 97 29 21 15 48 38 59 51 43 49 105
48 131 -1 13 -25 13 -33 0 -57 -16 -32 -83 -72 -119 -72 -14 0 -28 -4 -31 -8
-11 -18 12 -30 62 -34 49 -4 55 -3 62 18 5 12 18 29 30 37 30 21 51 87 41 125
-20 70 -61 102 -129 102 -31 0 -45 -7 -77 -41 -58 -59 -98 -81 -142 -77 -67 5
-83 79 -29 133 13 13 49 31 80 41 50 16 69 35 49 47 -5 3 -34 8 -65 12 -53 7
-56 6 -52 -13z"/>
<path d="M6986 5436 c7 -29 12 -25 -176 -114 -92 -43 -141 -61 -157 -57 -13 3
-23 10 -23 15 0 6 -7 10 -15 10 -17 0 -19 -13 -5 -38 5 -9 21 -43 35 -74 29
-64 45 -74 45 -27 0 25 6 32 38 46 20 8 78 34 127 58 50 23 108 48 129 56 36
13 39 12 56 -9 10 -12 23 -22 29 -22 14 0 14 27 1 35 -5 3 -10 13 -10 20 0 27
-52 125 -66 125 -10 0 -13 -7 -8 -24z"/>
<path d="M560 5351 c-25 -51 -36 -82 -29 -86 6 -4 16 1 23 10 16 23 54 12 216
-64 111 -51 126 -61 130 -86 3 -16 10 -30 16 -32 9 -3 84 148 84 170 0 16 -29
6 -35 -13 -10 -30 -41 -25 -146 24 -52 24 -120 55 -153 70 -54 25 -58 29 -54
56 8 50 -10 34 -52 -49z"/>
<path d="M7005 5129 c-45 -23 -60 -59 -65 -164 -5 -109 -10 -122 -47 -136 -37
-14 -63 -2 -79 37 -16 38 -11 68 18 128 27 54 10 64 -39 21 -39 -33 -40 -37
-36 -82 5 -60 39 -128 70 -142 13 -6 44 -11 69 -11 39 0 51 5 80 34 33 33 34
36 34 114 0 85 18 145 46 156 24 9 82 -12 94 -34 16 -30 11 -81 -14 -143 -14
-33 -20 -60 -14 -63 10 -6 76 36 104 67 15 16 15 19 2 19 -19 0 -28 21 -28 67
0 39 -25 86 -64 121 -28 24 -94 29 -131 11z"/>
<path d="M497 5066 c-20 -7 -44 -20 -53 -27 -29 -24 -66 -112 -72 -171 -2 -32
-9 -58 -13 -58 -18 0 -8 -19 14 -26 98 -30 127 -46 127 -70 0 -17 6 -24 18
-24 15 0 24 17 40 74 12 41 22 79 22 85 0 19 -25 12 -38 -10 -11 -18 -20 -21
-54 -16 -75 10 -101 67 -57 129 44 61 131 69 239 20 142 -64 159 -182 36 -242
-25 -12 -46 -26 -46 -31 0 -5 29 -9 65 -9 56 0 65 2 65 18 0 11 9 45 20 78 36
101 6 181 -92 250 -55 39 -159 53 -221 30z"/>
<path d="M7265 4672 c-11 -2 -86 -19 -168 -38 -174 -40 -213 -43 -222 -14 -3
11 -11 20 -17 20 -5 0 -8 -6 -5 -14 3 -8 11 -41 18 -75 8 -41 16 -61 26 -61 9
0 12 6 8 19 -3 10 1 23 8 29 13 12 236 67 242 60 2 -2 -27 -37 -63 -79 -182
-207 -173 -190 -151 -271 11 -43 29 -51 29 -13 0 31 13 37 175 74 188 44 181
44 200 15 9 -15 21 -22 25 -18 13 13 -21 144 -37 144 -7 0 -13 -6 -13 -12 0
-23 -16 -39 -46 -44 -16 -3 -67 -16 -114 -28 -143 -40 -135 -39 -104 -3 26 32
93 108 192 220 63 72 69 100 17 89z"/>
<path d="M286 4515 c-19 -97 -14 -120 18 -80 l22 27 84 -16 c233 -42 252 -48
264 -78 6 -15 13 -28 17 -28 9 0 42 160 34 168 -3 4 -15 -4 -24 -17 l-19 -24
-158 32 c-172 35 -209 50 -199 82 4 13 2 19 -8 19 -10 0 -19 -26 -31 -85z"/>
<path d="M256 4248 c-2 -24 -9 -84 -15 -134 -18 -151 -19 -146 44 -177 47 -23
56 -25 61 -12 4 10 -4 24 -21 37 -52 40 -76 156 -37 176 16 9 160 2 295 -13
53 -7 60 -10 69 -36 5 -16 14 -29 18 -29 15 0 31 162 18 176 -9 9 -28 -5 -28
-21 0 -23 -24 -24 -166 -9 -200 21 -204 22 -204 43 0 10 -6 24 -14 30 -12 10
-15 5 -20 -31z"/>
<path d="M7260 4156 c0 -2 23 -26 50 -53 43 -43 50 -56 50 -89 0 -82 -2 -84
-96 -84 l-84 0 0 33 c0 41 9 54 40 58 14 2 26 12 28 22 3 16 -4 18 -84 15 -95
-3 -114 -15 -62 -39 29 -12 33 -19 36 -56 l3 -43 -70 0 c-38 0 -72 4 -75 9 -3
4 -8 33 -11 62 -6 53 -5 55 34 94 38 38 51 65 32 65 -4 0 -32 -10 -61 -22
l-53 -22 7 -110 c3 -61 6 -132 6 -158 0 -34 4 -48 14 -48 7 0 16 9 19 20 9 33
51 41 216 38 153 -3 156 -3 159 -25 2 -15 10 -23 23 -23 22 0 22 8 3 257 l-6
71 -39 16 c-36 15 -79 21 -79 12z"/>
<path d="M638 3813 c-2 -20 -10 -29 -32 -34 -36 -10 -331 -13 -345 -4 -6 3
-11 15 -11 26 0 10 -7 19 -15 19 -12 0 -13 -24 -8 -157 3 -87 7 -160 9 -162 5
-5 106 -41 116 -41 4 0 8 9 8 19 0 12 -11 23 -30 29 -16 6 -39 26 -50 44 -26
43 -27 113 -2 127 14 7 287 17 348 12 7 -1 14 -10 17 -21 3 -11 10 -20 16 -20
7 0 11 33 11 95 0 76 -3 95 -14 95 -8 0 -16 -12 -18 -27z"/>
<path d="M7355 3671 c-5 -24 -16 -32 -78 -56 -40 -15 -76 -32 -81 -36 -18 -16
-34 -9 -40 16 -7 29 -47 71 -77 80 -32 11 -83 -3 -107 -28 -27 -29 -39 -61
-46 -130 -3 -31 -9 -82 -12 -112 -4 -43 -2 -55 9 -55 7 0 19 11 25 25 9 18 19
25 41 25 57 0 294 -31 312 -41 11 -5 19 -21 19 -34 0 -35 26 -31 33 5 4 16 9
59 13 95 6 56 5 65 -10 65 -9 0 -16 -6 -16 -14 0 -29 -26 -37 -104 -30 -56 5
-76 11 -76 21 0 8 44 35 108 65 59 28 108 51 109 52 0 0 4 27 8 59 6 48 5 57
-8 57 -9 0 -18 -12 -22 -29z m-244 -90 c9 -11 16 -41 18 -73 l2 -55 -63 9
c-106 15 -108 16 -108 46 0 37 34 89 62 95 35 7 71 -2 89 -22z"/>
<path d="M640 3426 c0 -14 -4 -27 -9 -31 -6 -3 -56 -17 -113 -31 -161 -39
-205 -60 -228 -105 -23 -44 -25 -78 -7 -134 19 -62 33 -81 73 -100 43 -20 80
-17 219 19 121 31 141 32 157 6 14 -22 38 -27 38 -7 -1 27 -36 135 -45 138 -5
2 -12 -9 -15 -26 -5 -29 -9 -30 -130 -62 -195 -50 -241 -42 -260 42 -7 32 -5
45 11 72 12 19 32 35 47 39 15 3 39 10 54 16 14 5 66 20 115 33 90 23 117 21
130 -11 7 -20 33 -18 33 4 0 37 -43 162 -56 162 -8 0 -14 -11 -14 -24z"/>
<path d="M7310 3180 c-11 -15 -31 -21 -85 -24 -128 -9 -310 -26 -342 -32 -29
-6 -33 -10 -33 -38 0 -31 8 -37 157 -132 86 -54 162 -101 167 -103 19 -8 35
-28 42 -55 11 -47 32 -29 48 43 9 39 16 75 16 80 0 20 -20 11 -32 -14 -14 -31
-24 -31 -80 0 l-45 25 12 66 c7 36 16 68 19 71 4 4 33 9 66 11 l60 4 0 -37 c0
-53 22 -40 36 21 28 127 26 156 -6 114z m-200 -132 c0 -19 -20 -88 -25 -88 -3
0 -37 20 -76 44 -41 25 -65 46 -57 49 7 3 46 6 86 6 51 1 72 -3 72 -11z"/>
<path d="M756 2928 c6 -32 4 -33 -53 -55 -32 -11 -101 -37 -153 -57 -105 -40
-131 -43 -150 -21 -7 8 -18 15 -25 15 -9 0 -5 -21 13 -70 24 -68 44 -85 50
-44 4 26 40 47 154 88 51 19 101 37 111 41 32 13 17 -11 -30 -47 -27 -20 -57
-45 -68 -55 -11 -10 -47 -41 -80 -68 -67 -56 -76 -66 -72 -80 2 -6 79 -12 191
-15 l188 -5 -129 -48 c-168 -63 -158 -61 -176 -43 -16 17 -37 21 -37 9 0 -5
12 -43 27 -85 16 -49 32 -78 41 -78 10 0 12 7 8 24 -5 19 0 29 20 45 15 12 31
21 36 21 4 0 60 20 124 45 63 25 123 45 133 45 10 0 30 -10 45 -21 15 -12 30
-19 33 -16 3 3 -5 35 -18 71 -24 66 -24 66 -64 67 -22 1 -99 4 -171 8 l-131 6
114 95 c62 52 121 100 129 107 15 11 14 19 -11 82 -28 75 -58 98 -49 39z"/>
<path d="M6811 2838 c-5 -13 -20 -49 -34 -80 -28 -63 -25 -79 9 -47 l22 21 11
-21 c16 -29 70 -185 66 -189 -4 -5 -145 67 -145 74 0 3 4 14 10 24 7 13 6 19
-6 24 -9 4 -18 -2 -23 -17 -5 -12 -21 -48 -35 -80 -33 -73 -33 -84 0 -58 15
12 33 21 40 21 20 0 264 -117 286 -137 10 -9 18 -29 18 -44 0 -46 22 -26 64
58 37 75 38 114 1 73 -22 -25 -26 -25 -78 -1 -23 10 -49 21 -58 24 -9 3 -21
19 -27 36 -13 36 -11 36 93 46 39 4 81 9 94 12 22 5 23 3 17 -21 -5 -19 -3
-26 9 -26 15 0 85 127 85 155 0 21 -19 19 -38 -5 -14 -17 -40 -23 -142 -36
-69 -8 -131 -16 -139 -17 -23 -3 -63 108 -65 176 -1 60 -18 78 -35 35z"/>
<path d="M6511 2234 c-6 -14 -8 -31 -4 -37 8 -14 129 -149 197 -221 52 -55 66
-81 66 -127 0 -17 5 -29 13 -29 14 0 92 129 83 138 -4 3 -19 -1 -34 -10 -27
-16 -29 -16 -53 5 -63 56 -64 59 -23 122 l36 58 49 -6 c66 -8 72 -13 64 -53
-11 -60 17 -39 62 46 42 78 43 111 2 75 -18 -17 -28 -16 -222 24 -111 22 -207
41 -213 41 -6 0 -16 -12 -23 -26z m157 -68 c40 -8 75 -16 78 -18 6 -7 -46 -98
-56 -98 -9 0 -110 114 -110 124 0 8 5 8 88 -8z"/>
<path d="M1199 2043 c-1 -4 -1 -21 0 -38 1 -27 -10 -38 -115 -115 -64 -47
-123 -95 -131 -108 -34 -50 -9 -150 52 -209 28 -28 41 -33 80 -33 56 0 82 13
201 101 92 68 128 81 152 57 6 -6 15 -9 18 -5 9 9 -76 138 -87 131 -5 -3 -9
-20 -9 -37 0 -29 -10 -40 -92 -102 -115 -87 -145 -104 -183 -104 -49 0 -95 50
-95 104 0 39 32 74 139 154 102 77 121 85 151 64 42 -30 39 2 -9 71 -44 65
-70 89 -72 69z"/>
<path d="M6368 1910 c-40 -12 -95 -47 -119 -78 -11 -15 -47 -55 -79 -90 -45
-48 -56 -64 -44 -69 8 -3 20 -1 27 6 17 17 29 13 67 -21 90 -82 129 -116 173
-153 44 -36 48 -43 44 -72 -9 -53 21 -41 84 35 78 93 99 132 106 195 9 92 -39
178 -127 222 -55 27 -96 35 -132 25z m53 -70 c65 -18 159 -133 159 -194 0 -49
-45 -126 -74 -126 -6 0 -34 22 -62 48 -28 26 -85 76 -127 112 -42 36 -77 70
-77 76 0 20 42 66 74 80 38 16 60 17 107 4z"/>
<path d="M1525 1627 c6 -31 2 -38 -72 -108 -166 -161 -184 -174 -209 -149 -6
6 -19 8 -28 4 -15 -6 -9 -15 35 -60 51 -52 88 -71 75 -39 -3 8 -9 22 -12 31
-5 11 23 44 97 115 105 99 125 114 115 82 -7 -24 -62 -305 -71 -365 -6 -37 -4
-48 6 -48 12 0 146 113 204 173 86 88 102 99 123 86 41 -25 34 1 -13 56 -34
41 -51 53 -59 45 -7 -7 -7 -16 3 -32 12 -20 7 -27 -80 -109 -52 -48 -96 -85
-97 -84 -2 2 13 83 33 180 l37 177 -38 39 c-21 22 -42 39 -46 39 -5 0 -6 -15
-3 -33z"/>
<path d="M1870 1315 c0 -8 4 -15 9 -15 5 0 13 -9 16 -20 5 -15 -19 -58 -91
-166 -98 -145 -98 -145 -131 -139 -18 3 -33 2 -33 -2 1 -4 35 -30 77 -56 52
-34 79 -45 86 -38 7 7 5 12 -6 17 -38 14 -17 60 118 257 45 66 48 67 81 61 19
-3 34 -2 34 3 0 12 -138 113 -155 113 -3 0 -5 -7 -5 -15z"/>
<path d="M5718 1300 c-9 -11 -35 -24 -57 -30 -92 -24 -110 -169 -28 -223 34
-22 51 -21 149 4 67 17 86 18 110 8 36 -15 51 -42 43 -79 -11 -49 -32 -59
-135 -62 l-95 -3 56 -42 c61 -47 69 -50 69 -29 0 8 27 27 60 42 49 22 63 34
80 68 11 23 20 53 20 67 0 26 -33 87 -59 106 -22 17 -88 16 -147 -2 -74 -22
-130 -20 -148 7 -24 34 -19 63 16 93 28 24 38 26 78 21 85 -11 93 -11 97 1 3
9 -78 75 -89 72 -2 0 -11 -9 -20 -19z"/>
<path d="M2077 1183 c-12 -11 -8 -21 12 -28 30 -9 33 -33 17 -136 -8 -52 -17
-112 -21 -134 -3 -22 -10 -67 -15 -100 -13 -78 -13 -82 4 -88 8 -3 33 12 57
34 24 22 75 68 114 102 38 34 72 65 75 68 3 4 22 21 44 38 31 24 42 29 57 20
22 -11 39 -4 39 17 0 17 -125 78 -141 68 -8 -5 -7 -10 5 -16 36 -20 18 -52
-80 -137 -52 -45 -97 -81 -99 -79 -4 4 31 218 41 250 3 9 17 18 31 20 50 6 35
27 -46 68 -89 44 -85 43 -94 33z"/>
<path d="M5355 1083 c-74 -42 -76 -45 -65 -62 7 -12 12 -12 23 -3 11 10 19 9
35 -5 22 -20 182 -284 182 -301 0 -6 -9 -16 -20 -22 -25 -13 -26 -30 -2 -30
24 0 155 83 151 95 -2 6 -16 9 -30 7 -15 -2 -31 5 -40 15 -12 14 -142 229
-166 276 -3 4 2 19 11 32 9 13 16 27 16 30 0 13 -40 0 -95 -32z"/>
<path d="M5038 929 c-157 -71 -158 -72 -158 -104 0 -86 31 -130 44 -61 4 18
21 51 40 72 30 35 35 37 51 24 22 -17 132 -244 141 -288 5 -23 1 -35 -15 -48
-26 -23 -28 -49 -3 -41 9 3 52 20 94 39 85 36 100 62 38 62 -35 1 -36 3 -92
116 -78 157 -94 198 -80 212 16 16 88 13 116 -6 26 -16 66 -22 66 -8 0 4 -19
28 -43 55 l-42 47 -157 -71z"/>
<path d="M2510 938 c0 -7 9 -19 20 -26 26 -16 25 -32 -4 -95 -46 -101 -94
-212 -100 -229 -3 -10 -18 -18 -38 -20 -18 -2 -33 -7 -33 -12 0 -9 140 -74
250 -117 l50 -19 44 45 c49 48 48 67 -2 46 -73 -31 -188 -17 -204 24 -5 15 43
142 58 151 5 2 25 -2 45 -11 35 -14 36 -17 31 -55 -3 -22 -1 -40 4 -40 9 0 79
141 79 160 0 18 -28 10 -33 -10 -5 -21 -38 -26 -85 -14 -19 6 -22 11 -17 31
13 54 47 113 65 113 51 0 130 -61 130 -100 0 -21 25 -56 32 -44 4 5 9 34 13
65 l7 56 -129 51 c-156 62 -183 69 -183 50z"/>
<path d="M2920 794 c0 -10 9 -28 21 -40 l21 -22 -32 -154 c-18 -84 -37 -161
-42 -170 -5 -10 -20 -18 -33 -18 -14 0 -25 -6 -25 -13 0 -9 24 -18 68 -26 37
-7 77 -15 90 -18 15 -4 22 -1 22 10 0 8 -10 17 -21 20 -20 5 -21 10 -15 67 17
151 43 148 86 -10 32 -116 34 -120 60 -120 15 0 42 -3 59 -6 24 -5 31 -3 31 9
0 9 -10 17 -22 19 -17 2 -27 19 -50 88 -33 99 -34 109 -10 116 76 23 109 66
98 127 -12 62 -68 98 -206 132 -36 9 -73 18 -82 21 -12 4 -18 0 -18 -12z m207
-86 c30 -28 36 -63 18 -99 -19 -35 -53 -51 -106 -47 -28 1 -39 6 -39 17 1 32
29 133 41 147 16 19 55 11 86 -18z"/>
<path d="M4639 803 c-13 -3 -18 -24 -23 -101 -6 -99 -23 -258 -32 -300 -3 -13
-15 -34 -28 -47 -38 -37 -19 -46 62 -28 74 16 96 39 45 45 -24 3 -28 8 -31 39
-2 19 2 47 7 61 10 26 19 29 120 41 8 1 27 -16 43 -38 31 -44 30 -70 -3 -80
-24 -8 -26 -38 -1 -31 9 3 46 12 82 21 66 17 89 29 77 41 -3 4 -15 7 -26 8
-20 1 -88 104 -210 313 -34 60 -44 67 -82 56z m75 -176 l35 -58 -27 -10 c-57
-22 -82 -23 -82 -4 0 44 23 146 31 138 5 -5 24 -35 43 -66z"/>
<path d="M4280 715 c-8 -2 -68 -9 -132 -15 l-117 -12 -10 -50 c-21 -93 -9
-115 28 -53 21 36 74 75 103 75 9 0 19 -9 23 -19 11 -34 35 -235 35 -293 0
-53 -2 -58 -25 -64 -14 -3 -25 -13 -25 -21 0 -11 7 -14 23 -10 12 3 57 9 99
13 60 5 75 10 71 21 -3 8 -19 17 -34 20 -16 3 -31 8 -33 12 -2 3 -7 35 -11 71
-3 36 -10 92 -16 125 -5 33 -9 81 -9 108 l0 47 35 0 c36 0 71 -17 112 -54 36
-31 39 -11 10 49 -26 54 -27 55 -69 54 -24 -1 -50 -3 -58 -4z"/>
<path d="M3413 690 c-36 -21 -62 -64 -65 -107 -4 -54 41 -104 119 -131 28 -10
59 -24 68 -32 24 -20 46 -66 39 -84 -10 -25 -51 -46 -93 -46 -35 0 -46 6 -94
55 -29 30 -57 55 -61 55 -8 0 -2 -39 16 -100 9 -33 12 -35 56 -37 26 0 64 -4
85 -8 54 -10 108 16 136 65 25 44 26 71 7 108 -21 40 -45 58 -107 82 -101 37
-136 94 -87 140 33 30 80 26 122 -11 19 -16 38 -39 41 -50 8 -24 35 -25 35 -2
0 34 -33 104 -46 99 -7 -3 -26 1 -41 9 -39 21 -92 19 -130 -5z"/>
<path d="M3750 667 c0 -7 14 -18 30 -24 l30 -11 -2 -184 c-3 -181 -3 -183 -25
-186 -13 -2 -23 -10 -23 -18 0 -12 16 -14 92 -12 91 3 126 18 76 33 -13 4 -26
13 -30 19 -4 6 -8 88 -8 182 l0 171 25 11 c48 22 27 32 -70 32 -71 0 -95 -3
-95 -13z"/>
</g>
</svg>
